M48
METRIC,LZ,000.000
;FILE_FORMAT=3:3
;TYPE=PLATED
;Layer: PTH_Through
;EasyEDA v6.5.51, 2025-12-30 14:59:57
;e2b6940d57744ff6b67d484dd8a43087,29e69997831044be9a653ea2d9381927,10
;Gerber Generator version 0.2
;Holesize 1 = 1.101 mm
T01C1.101
;Holesize 2 = 1.200 mm
T02C1.200
%
G05
G90
T01
X042291Y019939
X044831Y019939
X047371Y019939
X049911Y019939
X052451Y019939
X054991Y019939
X057531Y019939
X060071Y019939
X062611Y019939
X065151Y019939
T02
X072009Y056388
X072009Y053848
X072009Y051308
X072009Y048768
X072009Y046228
X072009Y043688
X072009Y041148
X072009Y038608
X072009Y036068
X072009Y033528
X072009Y030988
X072009Y028448
X072009Y025908
X072009Y023368
X035941Y056769
X035941Y054229
X035941Y051689
X035941Y049149
X035941Y046609
X035941Y044069
X035941Y041529
X035941Y038989
X035941Y036449
X035941Y033909
X035941Y031369
X035941Y028829
X035941Y026289
X035941Y023749
M30
