G04 Layer: TopSilkscreenLayer*
G04 EasyEDA v6.5.51, 2025-12-30 14:59:57*
G04 e2b6940d57744ff6b67d484dd8a43087,29e69997831044be9a653ea2d9381927,10*
G04 Gerber Generator version 0.2*
G04 Scale: 100 percent, Rotated: No, Reflected: No *
G04 Dimensions in millimeters *
G04 leading zeros omitted , absolute positions ,4 integer and 5 decimal *
%FSLAX45Y45*%
%MOMM*%

%ADD10C,0.1524*%
%ADD11C,0.2540*%
%ADD12C,0.0163*%

%LPD*%
D10*
X5397500Y1751584D02*
G01*
X5397500Y1860550D01*
X5324856Y1751584D02*
G01*
X5324856Y1860550D01*
X5397500Y1803400D02*
G01*
X5324856Y1803400D01*
X5223002Y1787905D02*
G01*
X5228081Y1803400D01*
X5238495Y1813813D01*
X5253990Y1819147D01*
X5259324Y1819147D01*
X5274818Y1813813D01*
X5285231Y1803400D01*
X5290565Y1787905D01*
X5290565Y1782826D01*
X5285231Y1767078D01*
X5274818Y1756663D01*
X5259324Y1751584D01*
X5253990Y1751584D01*
X5238495Y1756663D01*
X5228081Y1767078D01*
X5223002Y1787905D01*
X5223002Y1813813D01*
X5228081Y1839976D01*
X5238495Y1855470D01*
X5253990Y1860550D01*
X5264404Y1860550D01*
X5280152Y1855470D01*
X5285231Y1845055D01*
X7494015Y4013200D02*
G01*
X7416038Y4013200D01*
X7400543Y4008120D01*
X7390129Y3997705D01*
X7385050Y3981957D01*
X7385050Y3971544D01*
X7390129Y3956050D01*
X7400543Y3945636D01*
X7416038Y3940555D01*
X7494015Y3940555D01*
X7468108Y3900931D02*
G01*
X7473188Y3900931D01*
X7483602Y3895852D01*
X7488936Y3890518D01*
X7494015Y3880104D01*
X7494015Y3859529D01*
X7488936Y3849115D01*
X7483602Y3843781D01*
X7473188Y3838702D01*
X7462774Y3838702D01*
X7452359Y3843781D01*
X7436865Y3854195D01*
X7385050Y3906265D01*
X7385050Y3833368D01*
X3887215Y4051300D02*
G01*
X3809238Y4051300D01*
X3793743Y4046220D01*
X3783329Y4035805D01*
X3778250Y4020057D01*
X3778250Y4009644D01*
X3783329Y3994150D01*
X3793743Y3983736D01*
X3809238Y3978655D01*
X3887215Y3978655D01*
X3887215Y3933952D02*
G01*
X3887215Y3876802D01*
X3845559Y3907789D01*
X3845559Y3892295D01*
X3840479Y3881881D01*
X3835400Y3876802D01*
X3819652Y3871468D01*
X3809238Y3871468D01*
X3793743Y3876802D01*
X3783329Y3887215D01*
X3778250Y3902710D01*
X3778250Y3918204D01*
X3783329Y3933952D01*
X3788409Y3939031D01*
X3798824Y3944365D01*
X6528790Y3834447D02*
G01*
X6450812Y3834447D01*
X6435318Y3829367D01*
X6424904Y3818953D01*
X6419824Y3803205D01*
X6419824Y3792791D01*
X6424904Y3777297D01*
X6435318Y3766883D01*
X6450812Y3761803D01*
X6528790Y3761803D01*
X6507962Y3727513D02*
G01*
X6513296Y3717099D01*
X6528790Y3701351D01*
X6419824Y3701351D01*
X6507962Y3667061D02*
G01*
X6513296Y3656647D01*
X6528790Y3641153D01*
X6419824Y3641153D01*
D11*
X6388097Y1868901D02*
G01*
X6388097Y2118901D01*
X4102102Y2118901D02*
G01*
X6642097Y2118901D01*
X4102102Y2118901D02*
G01*
X4102102Y1868901D01*
X6642097Y1868901D01*
X6642097Y2118901D01*
X7334867Y2209800D02*
G01*
X7334867Y2184400D01*
X7073900Y2184400D01*
X7073900Y2209800D01*
X7334867Y5765800D02*
G01*
X7334867Y5803900D01*
X7073900Y5803900D01*
X7073900Y5765800D01*
X7334867Y5765800D02*
G01*
X7334867Y2209800D01*
X7334867Y5513410D02*
G01*
X7073900Y5513410D01*
X7073900Y5765800D02*
G01*
X7073900Y2209800D01*
X3728067Y2247900D02*
G01*
X3728067Y2222500D01*
X3467100Y2222500D01*
X3467100Y2247900D01*
X3728067Y5803900D02*
G01*
X3728067Y5842000D01*
X3467100Y5842000D01*
X3467100Y5803900D01*
X3728067Y5803900D02*
G01*
X3728067Y2247900D01*
X3728067Y5551510D02*
G01*
X3467100Y5551510D01*
X3467100Y5803900D02*
G01*
X3467100Y2247900D01*
X4497504Y2592009D02*
G01*
X4757892Y2592009D01*
X6297505Y4461123D02*
G01*
X6297505Y5142011D01*
X4497504Y5142006D02*
G01*
X4497504Y4461123D01*
X4497504Y5142011D02*
G01*
X6297505Y5142011D01*
X4497504Y4520008D02*
G01*
X6297505Y4520008D01*
X6032505Y5091508D02*
G01*
X5905505Y5091508D01*
X5905505Y4583508D01*
X5905505Y5091508D02*
G01*
X5651505Y5091508D01*
X5651505Y4647008D01*
X5334005Y4647008D01*
X5334005Y5091508D01*
X5080005Y5091508D01*
X5080005Y4647008D01*
X5080005Y4647008D02*
G01*
X4826005Y4647008D01*
X4826005Y5091508D01*
X4572005Y5091508D01*
X4572005Y4583508D01*
X4826005Y4456508D02*
G01*
X4826005Y4329508D01*
X4635505Y4393008D01*
X4826005Y4456508D01*
X4497504Y2673896D02*
G01*
X4497504Y2592009D01*
X6037125Y2592009D02*
G01*
X6297505Y2592009D01*
X6297505Y2592009D02*
G01*
X6297505Y2673896D01*
X6096000Y5091493D02*
G01*
X6096000Y4519993D01*
X6032500Y4519993D01*
X6032500Y5091493D01*
X6096000Y5091493D01*
M02*
