G04 Layer: TopSolderMaskLayer*
G04 EasyEDA v6.5.51, 2025-12-30 14:59:57*
G04 e2b6940d57744ff6b67d484dd8a43087,29e69997831044be9a653ea2d9381927,10*
G04 Gerber Generator version 0.2*
G04 Scale: 100 percent, Rotated: No, Reflected: No *
G04 Dimensions in millimeters *
G04 leading zeros omitted , absolute positions ,4 integer and 5 decimal *
%FSLAX45Y45*%
%MOMM*%

%AMMACRO1*4,1,8,-0.8085,-0.9008,-0.8382,-0.8708,-0.8382,0.8711,-0.8085,0.9008,0.8082,0.9008,0.8382,0.8711,0.8382,-0.8708,0.8082,-0.9008,-0.8085,-0.9008,0*%
%AMMACRO2*4,1,8,-0.921,-0.9507,-0.9507,-0.9207,-0.9507,0.921,-0.921,0.9507,0.9207,0.9507,0.9507,0.921,0.9507,-0.9207,0.9207,-0.9507,-0.921,-0.9507,0*%
%AMMACRO3*4,1,8,-0.8461,-0.5508,-0.8758,-0.5208,-0.8758,0.5211,-0.8461,0.5508,0.8458,0.5508,0.8758,0.5211,0.8758,-0.5208,0.8458,-0.5508,-0.8461,-0.5508,0*%
%AMMACRO4*4,1,8,-0.5211,-0.8758,-0.5508,-0.8458,-0.5508,0.8461,-0.5211,0.8758,0.5208,0.8758,0.5508,0.8461,0.5508,-0.8458,0.5208,-0.8758,-0.5211,-0.8758,0*%
%ADD10C,1.8016*%
%ADD11MACRO1*%
%ADD12MACRO2*%
%ADD13C,1.9016*%
%ADD14MACRO3*%
%ADD15MACRO4*%
%ADD16C,0.0150*%

%LPD*%
D10*
G01*
X4229100Y1993900D03*
G01*
X4483100Y1993900D03*
G01*
X4737100Y1993900D03*
G01*
X4991100Y1993900D03*
G01*
X5245100Y1993900D03*
G01*
X5499100Y1993900D03*
G01*
X5753100Y1993900D03*
G01*
X6007100Y1993900D03*
G01*
X6261100Y1993900D03*
D11*
G01*
X6515100Y1993887D03*
D12*
G01*
X7200900Y5638800D03*
D13*
G01*
X7200900Y5384800D03*
G01*
X7200900Y5130800D03*
G01*
X7200900Y4876800D03*
G01*
X7200900Y4622800D03*
G01*
X7200900Y4368800D03*
G01*
X7200900Y4114800D03*
G01*
X7200900Y3860800D03*
G01*
X7200900Y3606800D03*
G01*
X7200900Y3352800D03*
G01*
X7200900Y3098800D03*
G01*
X7200900Y2844800D03*
G01*
X7200900Y2590800D03*
G01*
X7200900Y2336800D03*
D12*
G01*
X3594100Y5676900D03*
D13*
G01*
X3594100Y5422900D03*
G01*
X3594100Y5168900D03*
G01*
X3594100Y4914900D03*
G01*
X3594100Y4660900D03*
G01*
X3594100Y4406900D03*
G01*
X3594100Y4152900D03*
G01*
X3594100Y3898900D03*
G01*
X3594100Y3644900D03*
G01*
X3594100Y3390900D03*
G01*
X3594100Y3136900D03*
G01*
X3594100Y2882900D03*
G01*
X3594100Y2628900D03*
G01*
X3594100Y2374900D03*
D14*
G01*
X4497501Y4392993D03*
G01*
X4497501Y4265993D03*
G01*
X4497501Y4138993D03*
G01*
X4497501Y4011993D03*
G01*
X4497501Y3884993D03*
G01*
X4497501Y3757993D03*
G01*
X4497501Y3630993D03*
G01*
X4497501Y3503993D03*
G01*
X4497501Y3376993D03*
G01*
X4497501Y3249993D03*
G01*
X4497501Y3122993D03*
G01*
X4497501Y2995993D03*
G01*
X4497501Y2868993D03*
G01*
X4497501Y2741993D03*
D15*
G01*
X4826012Y2592019D03*
G01*
X4953012Y2592019D03*
G01*
X5080012Y2592019D03*
G01*
X5207012Y2592019D03*
G01*
X5334012Y2592019D03*
G01*
X5461012Y2592019D03*
G01*
X5588012Y2592019D03*
G01*
X5715012Y2592019D03*
G01*
X5842012Y2592019D03*
G01*
X5969012Y2592019D03*
D14*
G01*
X6297498Y2741993D03*
G01*
X6297498Y2868993D03*
G01*
X6297498Y2995993D03*
G01*
X6297498Y3122993D03*
G01*
X6297498Y3249993D03*
G01*
X6297498Y3376993D03*
G01*
X6297498Y3503993D03*
G01*
X6297498Y3630993D03*
G01*
X6297498Y3757993D03*
G01*
X6297498Y3884993D03*
G01*
X6297498Y4011993D03*
G01*
X6297498Y4138993D03*
G01*
X6297498Y4265993D03*
G01*
X6297498Y4392993D03*
M02*
